HIERARCHY
ROOT Hips
{
	OFFSET -0.001795 -0.223333 0.028219
	CHANNELS 6 Xposition Yposition Zposition Zrotation Yrotation Xrotation
	JOINT LeftUpLeg
	{
		OFFSET 0.069520 -0.091406 -0.006815
		CHANNELS 3 Zrotation Yrotation Xrotation
		JOINT LeftLeg
		{
			OFFSET 0.034277 -0.375199 -0.004496
			CHANNELS 3 Zrotation Yrotation Xrotation
			JOINT LeftFoot
			{
				OFFSET -0.013596 -0.397961 -0.043693
				CHANNELS 3 Zrotation Yrotation Xrotation
				JOINT LeftToe
				{
					OFFSET 0.026358 -0.055791 0.119288
					CHANNELS 3 Zrotation Yrotation Xrotation
					End Site
					{
						OFFSET 0.000000 0.000000 0.000000
					}
				}
			}
		}
	}
	JOINT RightUpLeg
	{
		OFFSET -0.067670 -0.090522 -0.004320
		CHANNELS 3 Zrotation Yrotation Xrotation
		JOINT RightLeg
		{
			OFFSET -0.038290 -0.382569 -0.008850
			CHANNELS 3 Zrotation Yrotation Xrotation
			JOINT RightFoot
			{
				OFFSET 0.015774 -0.398415 -0.042312
				CHANNELS 3 Zrotation Yrotation Xrotation
				JOINT RightToe
				{
					OFFSET -0.025372 -0.048144 0.123348
					CHANNELS 3 Zrotation Yrotation Xrotation
					End Site
					{
						OFFSET 0.000000 0.000000 0.000000
					}
				}
			}
		}
	}
	JOINT Spine
	{
		OFFSET -0.002533 0.108963 -0.026696
		CHANNELS 3 Zrotation Yrotation Xrotation
		JOINT Spine1
		{
			OFFSET 0.005487 0.135180 0.001092
			CHANNELS 3 Zrotation Yrotation Xrotation
			JOINT Spine2
			{
				OFFSET 0.001457 0.052922 0.025425
				CHANNELS 3 Zrotation Yrotation Xrotation
				JOINT Neck
				{
					OFFSET -0.002778 0.213870 -0.042857
					CHANNELS 3 Zrotation Yrotation Xrotation
					JOINT Head
					{
						OFFSET 0.005152 0.064970 0.051349
						CHANNELS 3 Zrotation Yrotation Xrotation
						End Site
						{
							OFFSET 0.000000 0.000000 0.000000
						}
					}
				}
				JOINT LeftShoulder
				{
					OFFSET 0.078845 0.121749 -0.034090
					CHANNELS 3 Zrotation Yrotation Xrotation
					JOINT LeftArm
					{
						OFFSET 0.090977 0.030469 -0.008868
						CHANNELS 3 Zrotation Yrotation Xrotation
						JOINT LeftForeArm
						{
							OFFSET 0.259612 -0.012772 -0.027456
							CHANNELS 3 Zrotation Yrotation Xrotation
							JOINT LeftHand
							{
								OFFSET 0.249234 0.008986 -0.001171
								CHANNELS 3 Zrotation Yrotation Xrotation
								End Site
								{
									OFFSET 0.000000 0.000000 0.000000
								}
							}
						}
					}
				}
				JOINT RightShoulder
				{
					OFFSET -0.081759 0.118833 -0.038615
					CHANNELS 3 Zrotation Yrotation Xrotation
					JOINT RightArm
					{
						OFFSET -0.096012 0.032551 -0.009143
						CHANNELS 3 Zrotation Yrotation Xrotation
						JOINT RightForeArm
						{
							OFFSET -0.253742 -0.013329 -0.021401
							CHANNELS 3 Zrotation Yrotation Xrotation
							JOINT RightHand
							{
								OFFSET -0.255298 0.007772 -0.005559
								CHANNELS 3 Zrotation Yrotation Xrotation
								End Site
								{
									OFFSET 0.000000 0.000000 0.000000
								}
							}
						}
					}
				}
			}
		}
	}
}
MOTION
Frames: 7
Frame Time: 0.050000
0.000000 0.928962 0.000000 -2.215603 11.646010 -8.213998 9.142380 -0.648302 16.977046 -4.737764 0.405476 1.265405 8.635965 18.429627 11.561718 0.000000 0.000000 0.000000 -1.771681 -0.853177 7.854176 6.741593 -1.086746 4.362370 -8.224519 -20.233590 6.981339 0.000000 0.000000 0.000000 -1.097719 -0.018527 0.315862 5.687589 -0.901704 -18.286983 -3.305413 -5.464540 21.794084 1.244635 0.702812 -19.928902 0.000000 0.000000 0.000000 -36.000944 -3.985156 -1.067863 -44.543314 1.079195 -6.965893 -6.114019 -24.766145 2.400094 0.000000 0.000000 0.000000 27.032813 5.376279 2.497490 53.524905 -0.655392 -7.711229 -2.802041 30.040188 0.826851 0.000000 0.000000 0.000000
-0.002570 0.929336 -0.007650 -2.392762 10.975176 -7.767527 9.430239 -0.622563 16.115152 -5.071929 0.441684 1.189293 8.982541 18.925770 11.574620 0.000000 0.000000 0.000000 -1.363452 -0.848683 7.739443 6.477972 -0.964959 2.561767 -7.947935 -19.612941 7.170292 0.000000 0.000000 0.000000 -1.189019 0.017210 -1.248849 5.860361 -1.056680 -17.175490 -3.244166 -3.978521 21.538977 0.633561 1.210264 -19.362296 0.000000 0.000000 0.000000 -37.369168 -2.377117 -2.973918 -42.362636 4.022782 -7.374676 -7.677466 -24.362785 2.639724 0.000000 0.000000 0.000000 28.736269 3.911456 1.912326 53.017243 -1.719427 -8.209011 -3.588373 30.955982 0.737511 0.000000 0.000000 0.000000
-0.003729 0.928684 -0.015505 -2.398304 10.975865 -8.732079 9.939433 -0.724771 16.666672 -5.942374 0.520838 1.182617 8.905054 18.764474 11.077114 0.000000 0.000000 0.000000 -1.405396 -0.975718 8.804646 6.472323 -0.939563 1.623315 -7.852614 -19.452196 7.133232 0.000000 0.000000 0.000000 -1.516528 0.022727 -2.386428 4.932401 -0.866019 -15.598713 -3.545975 -3.887191 22.300070 -0.015350 1.585515 -18.534094 0.000000 0.000000 0.000000 -35.802070 -0.569379 -4.073429 -42.759747 4.970927 -7.856382 -6.392394 -24.188109 2.359786 0.000000 0.000000 0.000000 28.936988 4.543185 2.338303 52.159347 -2.289049 -8.364718 0.240652 30.630751 1.633080 0.000000 0.000000 0.000000
-0.003231 0.927782 -0.023637 -2.467327 11.631245 -9.215607 9.764139 -0.693554 15.815222 -5.521705 0.483869 2.488181 8.824292 18.519857 10.009137 0.000000 0.000000 0.000000 -1.262089 -0.900059 7.985258 6.213409 -0.953727 3.157622 -8.253403 -20.294566 7.020412 0.000000 0.000000 0.000000 -2.208299 -0.011859 -2.497894 4.410922 -0.697682 -15.246179 -3.157985 -3.440543 22.547026 0.495038 1.414776 -19.036715 0.000000 0.000000 0.000000 -35.200440 -0.214626 -4.656612 -42.731132 7.036112 -8.410857 -5.495279 -25.355513 2.248474 0.000000 0.000000 0.000000 29.217039 4.387810 2.605515 52.228497 -3.220475 -8.852194 0.350480 31.018472 1.737908 0.000000 0.000000 0.000000
-0.000879 0.925415 -0.032856 -2.281115 11.438577 -9.363270 8.848779 -0.468632 14.690948 -4.807736 0.410435 4.040164 9.317639 19.082130 8.715746 0.000000 0.000000 0.000000 -1.336527 -0.804280 7.213038 5.545795 -0.851570 3.887705 -8.311377 -20.504234 6.234813 0.000000 0.000000 0.000000 -2.628793 -0.039992 -1.683789 3.997108 -0.577670 -15.052273 -3.332212 -2.318948 21.813721 1.480446 0.956170 -19.385785 0.000000 0.000000 0.000000 -33.022396 0.334957 -5.129608 -42.992399 7.504424 -8.493753 -6.182159 -25.278418 2.333985 0.000000 0.000000 0.000000 29.189512 3.902403 2.596243 52.081309 -4.464208 -9.319613 2.553518 31.946907 2.410178 0.000000 0.000000 0.000000
0.003172 0.920783 -0.044514 -2.331704 11.414713 -8.962026 8.930293 -0.449508 13.600908 -5.680476 0.507980 4.127406 9.775986 19.474914 6.361301 0.000000 0.000000 0.000000 -1.609940 -0.474242 4.303386 5.525010 -0.941967 7.080074 -8.579652 -21.195919 4.898731 0.000000 0.000000 0.000000 -3.027770 -0.068712 0.326883 3.457497 -0.303828 -16.374257 -2.999413 -2.465731 22.333871 1.735298 0.821809 -20.112455 0.000000 0.000000 0.000000 -33.788116 -0.028131 -4.918750 -42.471773 8.350745 -8.710086 -5.804221 -26.103322 2.342068 0.000000 0.000000 0.000000 29.556622 4.573586 3.014068 51.314698 -4.101231 -9.109580 3.611849 31.253759 2.584244 0.000000 0.000000 0.000000
0.007851 0.914427 -0.060018 -1.753164 9.987367 -8.300695 8.366162 -0.241216 11.505296 -7.170612 0.725321 5.791018 10.947679 21.186960 3.958228 0.000000 0.000000 0.000000 -2.375016 0.057217 -1.290207 4.922925 -1.014367 14.160540 -8.471482 -20.965561 3.190597 0.000000 0.000000 0.000000 -3.481141 -0.092709 2.423173 2.967302 -0.212830 -16.074963 -3.396782 -1.589918 21.661522 2.835854 0.310282 -21.978356 0.000000 0.000000 0.000000 -32.938228 -1.192977 -3.935722 -42.675923 8.118515 -8.657390 -4.174563 -28.014557 2.112876 0.000000 0.000000 0.000000 30.888231 6.153683 4.083433 50.645608 -3.164899 -8.602964 3.351884 32.037224 2.556231 0.000000 0.000000 0.000000
